<svg width="24" height="24" viewBox="0 0 24 24" fill="none" xmlns="http://www.w3.org/2000/svg">
<path d="M12 5.4375C5.73745 5.4375 0.637451 10.95 0.637451 17.7375C0.637451 18.1875 1.01245 18.6 1.49995 18.6H22.4999C22.9499 18.6 23.3624 18.225 23.3624 17.7375C23.3624 10.95 18.2624 5.4375 12 5.4375ZM11.625 16.875L12 15.7125L12.375 16.875H11.625ZM14.1375 16.875L13.1249 13.725C12.9749 13.2375 12.525 12.9 12 12.9C11.4749 12.9 11.025 13.2375 10.875 13.725L9.86245 16.875H2.36245C2.77495 11.4375 6.93745 7.125 12 7.125C17.0625 7.125 21.2249 11.4375 21.6374 16.875H14.1375Z" fill="#F7F7F7"/>
<path d="M12 9.33752C11.55 9.33752 11.1375 9.71252 11.1375 10.2V11.1375C11.1375 11.5875 11.5125 12 12 12C12.45 12 12.8625 11.625 12.8625 11.1375V10.2C12.8625 9.71252 12.45 9.33752 12 9.33752Z" fill="#F7F7F7"/>
<path d="M17.4 12.1125L16.8 12.7125C16.4625 13.05 16.4625 13.575 16.8 13.9125C16.95 14.0625 17.175 14.1375 17.4 14.1375C17.625 14.1375 17.85 14.0625 18 13.875L18.6 13.275C18.9375 12.9375 18.9375 12.4125 18.6 12.075C18.2625 11.7375 17.7375 11.775 17.4 12.1125Z" fill="#F7F7F7"/>
<path d="M6.63736 12.1125C6.33736 11.775 5.77486 11.7375 5.43736 12.0375C5.09986 12.3375 5.06236 12.9 5.36236 13.2375L5.92486 13.8375C6.07486 14.025 6.33736 14.1 6.56236 14.1C6.74986 14.1 6.97486 14.025 7.12486 13.875C7.46236 13.575 7.49986 13.0125 7.19986 12.675L6.63736 12.1125Z" fill="#F7F7F7"/>
</svg>
